/* XPM */
static char *configure-xawtv[] = {
/* columns rows colors chars-per-pixel */
"32 32 111 2",
"   c #000000",
".  c #080806",
"X  c #0C0C0C",
"o  c #041104",
"O  c #131313",
"+  c #161618",
"@  c #1A1A1B",
"#  c #0B240B",
"$  c #112711",
"%  c #142814",
"&  c #1B2B1B",
"*  c #1F2021",
"=  c #222222",
"-  c #26282B",
";  c #2A2A2A",
":  c #2F2F31",
">  c #233223",
",  c #2F3134",
"<  c #323232",
"1  c #36383B",
"2  c #3B3B3B",
"3  c #064606",
"4  c #064C06",
"5  c #084308",
"6  c #0A490A",
"7  c #1B421B",
"8  c #135113",
"9  c #1B531B",
"0  c #224B22",
"q  c #294229",
"w  c #2D4C2D",
"e  c #334033",
"r  c #2B6E2B",
"t  c #444444",
"y  c #424B42",
"u  c #4A4A4A",
"i  c #4A4D52",
"p  c #435743",
"a  c #545454",
"s  c #5A5A5A",
"d  c #5E655E",
"f  c #5B6B5B",
"g  c #5E6163",
"h  c #626363",
"j  c #63676B",
"k  c #666E66",
"l  c #676869",
"z  c #696A6A",
"x  c #6B756B",
"c  c #747574",
"v  c #767C76",
"b  c #7A7A7A",
"n  c #7C7E80",
"m  c #1B931B",
"M  c #249924",
"N  c #2B9B2B",
"B  c #339D33",
"V  c #3B9F3B",
"C  c #3CA13C",
"Z  c #43A443",
"A  c #4AA44A",
"S  c #4CA84C",
"D  c #51A651",
"F  c #53A953",
"G  c #5AAD5A",
"H  c #728D72",
"J  c #7F807F",
"K  c #739073",
"L  c #749E74",
"P  c #66AF66",
"I  c #63B063",
"U  c #6AB16A",
"Y  c #7CA67C",
"T  c #72B372",
"R  c #7F8385",
"E  c #828382",
"W  c #848984",
"Q  c #85898C",
"!  c #8C8C8C",
"~  c #8D8F92",
"^  c #8B958B",
"/  c #8F9193",
"(  c #949694",
")  c #939B93",
"_  c #9A9A9A",
"`  c #82BC82",
"'  c #8EB88E",
"]  c #9BA49B",
"[  c #9FA89F",
"{  c #A4A5A4",
"}  c #A0A9A0",
"|  c #ACACAC",
" . c #B6B6B6",
".. c #B3BCB3",
"X. c #BCBCBC",
"o. c #8CC48C",
"O. c #91C591",
"+. c #9BCB9B",
"@. c #A3CDA3",
"#. c #ACD1AC",
"$. c #B4C6B4",
"%. c #B3D4B3",
"&. c #BAD7BA",
"*. c #BBD8BB",
"=. c #C3C3C3",
"-. c #CCCCCC",
";. c #C2DBC2",
":. c #D2D2D2",
">. c #D8D8D8",
",. c gray100",
"<. c None",
/* pixels */
"<.<.<.<.<.<.; 2 t u u u a u u a u u a u u t <.<.<.<.<.<.<.<.<.<.",
"<.<.<.- 2 u u u u u a s s s d s s s s a a t : <.<.<.<.<.<.<.<.<.",
"<.<.; t u b  .-.-.:.:.:.>.:.=. .X. . . . .a :   <.<.<.<.<.<.<.<.",
"<.  2 s =.-.-.-.-.:.:.:.:.=. . . . . . . .h ;   <.<.<.<.<.<.<.<.",
"<.< t X.-.-.-.-.:.:.-.:.=.X. . . . . . . .h :   <.<.<.<.<.<.<.<.",
"  < ! =.-.-.-.:.-.-.-.=. . . . . . . .X.=.z ;   <.<.<.<.<.<.<.<.",
"- 2 | -.-.-.-.-.-.-.=. . . . . . .X.-.>.:.z ;   <.<.<.<.<.<.<.<.",
"; 2  .=.-.=.=.-.=.| { { { { { { { | | | { a = . <.<.<.<.<.<.<.<.",
"; t X.=.=.=.=. .s < < < ; < : ; : ; ; ; ; = O   <.<.<.<.<.<.<.<.",
"= t X.=.X.=.=.| u 2 2 2 2 2 2 2 : @ O O O X   <.<.<.<.<.<.<.<.<.",
"* t  .=.X.=.=. .W s a s s a s s a u u t ;   <.<.<.<.<.<.<.<.<.<.",
"* 2 | X.u @ = - ; ; ; - ; ; ; ; ; ; ; ; ; ; ; ; ; = ; - ; = * t ",
"O : _  .u @ W ......................| } } } } [ ] ] ] ] ] c @ u ",
"  * s  .u @ ) -.-.-.-.-.-.-.-.-.-.-.-.] $.;.;.;.;.;.*.;.*.v * t ",
"  + < ( u @ ^ -.-.-.-.-.-.-.-.=.-.=.=. .( &.*.*.*.*.&.&.&.x * u ",
"<.  * < u + W -.-.-.-.-.-.=.-.=.=.=.=.X.W %.%.%.%.&.&.&.&.k * u ",
"<.<.  & t @ x E ! / ! ! ! ! { =.=.=.=.X.E +.@.#.#.#.#.%.%.d * t ",
"<.<.<.  u @ f Y H H H H H H b =.=.=.X.X.b ' +.+.+.+.@.@.@.u * u ",
"<.; < < t @ f E E E E n E b ! =.=.=.X.X.c Y o.O.O.O.o.` ` & * u ",
": t u u t @ p  .X.=.X.=.X.=.=.=.=.X.X.| h T T T U P U T T & * t ",
": s X.=.u @ q  . .X.=.X.=.X.X.X. . .| ! < S F F G G I P U & * u ",
"; b -.:.u @ q  .=.X.=.X.X.X.X. . .| | h w Z Z S S F G G I & = t ",
"; b :.:.t @ q X. .=.X.X.X.X.X. . .| ! < r B C C Z A A D F % * t ",
"; b :.>.u @ q  .X.X.X.=.X.X. . .{ J < 0 N N B B C C Z A S $ = u ",
"; c >.>.u @ # : < < < < < < < < ; > 7 m M M M N B B V C C % = u ",
"; s -.:.u @ o 6 6 5 6 6 6 6 6 5 5 3 4 4 4 6 6 8 8 8 9 9 9 o * u ",
"@ - 2 2 2 O                                             .   @ 2 ",
"  @ + @ = ; ; ; ; - ; ; ; ; ; ; ; < 2 ; ; ; ; - ; ; ; ; ; ; ; = ",
"<.    <.E Q Q Q Q Q Q Q Q Q Q Q n g g R Q Q Q Q Q Q Q Q Q Q Q n ",
"<.<.<.<.<.<.<.<.<.<.<.<.<.<.,._ s     s _ ,.<.<.<.<.<.<.<.<.<.<.",
"<.<.<.<.<.<.<.<.<.: 1 - + .   . ; = = ; X     . X * < , <.<.<.<.",
"<.<.<.<.<.          + i j j s z b / / n z u : @ + O           <."
};
