/* XPM */
static char *configure-xawtv-16[] = {
/* columns rows colors chars-per-pixel */
"16 16 153 2",
"   c black",
".  c #020202",
"X  c gray1",
"o  c #060606",
"O  c gray3",
"+  c gray5",
"@  c gray7",
"#  c #131313",
"$  c #161616",
"%  c gray9",
"&  c #181819",
"*  c #113F11",
"=  c gray13",
"-  c #202122",
";  c #222222",
":  c gray14",
">  c #252525",
",  c gray15",
"<  c #272727",
"1  c #282828",
"2  c #2A2A2A",
"3  c gray17",
"4  c #2C2C2C",
"5  c #2D2D2D",
"6  c #2F2F2F",
"7  c #2C2E30",
"8  c gray19",
"9  c #313131",
"0  c #313132",
"q  c #323232",
"w  c gray20",
"e  c #343434",
"r  c #353535",
"t  c gray21",
"y  c #373737",
"u  c gray22",
"i  c #393A3C",
"p  c #3A3B3C",
"a  c #3C3C3C",
"s  c #3F3F3F",
"d  c #1B4C1B",
"f  c #145414",
"g  c #1E511E",
"h  c #0D650D",
"j  c #127612",
"k  c #197919",
"l  c #207A20",
"z  c #287D28",
"x  c #376C37",
"c  c #387538",
"v  c #3F4043",
"b  c gray25",
"n  c #414141",
"m  c #434343",
"M  c #444444",
"N  c gray27",
"B  c gray28",
"V  c #484848",
"C  c gray29",
"Z  c gray30",
"A  c #4E4E4E",
"S  c #4F594F",
"D  c #4F5051",
"F  c #515152",
"G  c #565656",
"H  c #5B5B5B",
"J  c #477847",
"K  c #507650",
"L  c #6B7F6B",
"P  c #2C962C",
"I  c #39A839",
"U  c #42AB42",
"Y  c #4BAF4B",
"T  c #4EA94E",
"R  c #56AC56",
"E  c #748D74",
"W  c #779B77",
"Q  c #7B947B",
"!  c #60B060",
"~  c #7BA07B",
"^  c #76B176",
"/  c #79B579",
"(  c #7DB87D",
")  c #818587",
"_  c #828689",
"`  c #838789",
"'  c #818C81",
"]  c #828E82",
"[  c #838F83",
"{  c #85898C",
"}  c #839283",
"|  c #829982",
" . c #929E92",
".. c #9A9A9A",
"X. c #9B9B9B",
"o. c #9B9D9B",
"O. c #9D9D9D",
"+. c #94A894",
"@. c #99A799",
"#. c gray63",
"$. c gray64",
"%. c #A4A4A4",
"&. c #A5A5A5",
"*. c #AEAEAE",
"=. c #ADB8AD",
"-. c #ADBFAD",
";. c #AFBDAF",
":. c #AFBFAF",
">. c gray69",
",. c #B0B1B0",
"<. c #B2B2B2",
"1. c gray70",
"2. c #B5B6B5",
"3. c #B6B6B6",
"4. c #B7B7B7",
"5. c #B3B9B3",
"6. c gray73",
"7. c #BABBBA",
"8. c #BBBBBB",
"9. c #BCBCBC",
"0. c gray74",
"q. c gray",
"w. c #9EC79E",
"e. c #A2C8A2",
"r. c #A7CAA7",
"t. c #AEC0AE",
"y. c #B0C1B0",
"u. c #B5D2B5",
"i. c #B7D2B7",
"p. c #B8D3B8",
"a. c #C0C0C0",
"s. c #C1C1C1",
"d. c gray76",
"f. c #C2C3C2",
"g. c gray77",
"h. c #C5C5C5",
"j. c #C6C6C6",
"k. c #C6C7C6",
"l. c gray78",
"z. c #C7C8C7",
"x. c #C4CCC4",
"c. c #C6CCC6",
"v. c #C6CDC6",
"b. c #C7CEC7",
"n. c #C8C8C8",
"m. c gray79",
"M. c #C9CAC9",
"N. c gray80",
"B. c #CECECE",
"V. c gray81",
"C. c #D2D2D2",
"Z. c gray100",
"A. c None",
/* pixels */
"A.w m s b N C C C V b w A.A.A.A.",
"A.m $.j.C.C.V.q.3.3.O., A.A.A.A.",
"6 &.N.N.N.N.6.3.3.4.&., A.A.A.A.",
"w a.m.m.a.1.>.>.1.a.O.; A.A.A.A.",
"y a.a.q.N y u y 6 6 , @ A.A.A.A.",
"6 1.H 1 6 1 1 4 1 , , , : : ; m ",
"$ ..w =.x.x.x.x.x.5.-.t.-.;. .y ",
"+ Z y ;.j.j.j.j.a.q.@.i.i.i.+.y ",
"A.$ w E [ ] ' *.q.q.Q -.w.e.Q u ",
"p N w Q $.&.&.5.8.3.E ( ^ ^ K u ",
"Z m.w W 6.9.q.6.3...x T R ! J u ",
"G C.y W j.m.z.a.1.S P I U Y c u ",
"Z C.y * d d d d f h j k k z g u ",
"; 1 @ X X X X X X X X X X X X $ ",
"A.A._ { { { { _ s p _ { { { { _ ",
"A.A.A.A., v i 0 D F 0 & - 4 A.A."
};
