/* XPM */
static char *configure-bttv-16[] = {
/* columns rows colors chars-per-pixel */
"16 16 154 2",
"   c black",
".  c #020202",
"X  c gray1",
"o  c #060606",
"O  c gray3",
"+  c gray5",
"@  c gray7",
"#  c #131313",
"$  c #161616",
"%  c gray9",
"&  c #181819",
"*  c #11363F",
"=  c gray13",
"-  c #202122",
";  c #222222",
":  c gray14",
">  c #252525",
",  c gray15",
"<  c #272727",
"1  c #282828",
"2  c #2A2A2A",
"3  c gray17",
"4  c #2C2C2C",
"5  c #2D2D2D",
"6  c #2F2F2F",
"7  c #2C2E30",
"8  c gray19",
"9  c #313131",
"0  c #313132",
"q  c #323232",
"w  c gray20",
"e  c #343434",
"r  c #353535",
"t  c gray21",
"y  c #373737",
"u  c gray22",
"i  c #393A3C",
"p  c #3A3B3C",
"a  c #3C3C3C",
"s  c #3F3F3F",
"d  c #1B434C",
"f  c #1B444C",
"g  c #144854",
"h  c #1E4851",
"j  c #0D5465",
"k  c #126376",
"l  c #196679",
"z  c #3F4043",
"x  c #206A7A",
"c  c #286D7D",
"v  c #37626C",
"b  c #386975",
"n  c gray25",
"m  c #414141",
"M  c #434343",
"N  c #444444",
"B  c gray27",
"V  c gray28",
"C  c #484848",
"Z  c gray29",
"A  c gray30",
"S  c #4E4E4E",
"D  c #4F5051",
"F  c #4F5759",
"G  c #515152",
"H  c #565656",
"J  c #5B5B5B",
"K  c #476E78",
"L  c #506F76",
"P  c #6B7B7F",
"I  c #2C8296",
"U  c #3993A8",
"Y  c #4297AB",
"T  c #4B9CAF",
"R  c #4E98A9",
"E  c #569CAC",
"W  c #74898D",
"Q  c #77949B",
"!  c #7B9094",
"~  c #7B99A0",
"^  c #60A0B0",
"/  c #76A6B1",
"(  c #79A9B5",
")  c #7DADB8",
"_  c #818587",
"`  c #828689",
"'  c #838789",
"]  c #818A8C",
"[  c #828C8E",
"{  c #838D8F",
"}  c #85898C",
"|  c #838F92",
" . c #829499",
".. c #929B9E",
"X. c #9A9A9A",
"o. c #9B9B9B",
"O. c #9B9C9D",
"+. c #9D9D9D",
"@. c #94A4A8",
"#. c #99A5A7",
"$. c gray63",
"%. c gray64",
"&. c #A4A4A4",
"*. c #A5A5A5",
"=. c #AEAEAE",
"-. c #ADB6B8",
";. c #AFBABD",
":. c #ADBCBF",
">. c #AFBDBF",
",. c gray69",
"<. c #B0B1B1",
"1. c #B2B2B2",
"2. c gray70",
"3. c #B5B5B6",
"4. c #B6B6B6",
"5. c #B7B7B7",
"6. c #B3B8B9",
"7. c gray73",
"8. c #BABBBB",
"9. c #BBBBBB",
"0. c #BCBCBC",
"q. c gray74",
"w. c gray",
"e. c #9EBFC7",
"r. c #AEBDC0",
"t. c #B0BEC1",
"y. c #A2C1C8",
"u. c #A7C3CA",
"i. c #B5CDD2",
"p. c #B7CDD2",
"a. c #B8CED3",
"s. c #C0C0C0",
"d. c #C1C1C1",
"f. c gray76",
"g. c #C2C3C3",
"h. c gray77",
"j. c #C5C5C5",
"k. c #C6C6C6",
"l. c #C6C7C7",
"z. c gray78",
"x. c #C7C8C8",
"c. c #C4CACC",
"v. c #C6CBCC",
"b. c #C6CBCD",
"n. c #C7CCCE",
"m. c #C8C8C8",
"M. c gray79",
"N. c #C9CACA",
"B. c gray80",
"V. c #CECECE",
"C. c gray81",
"Z. c #D2D2D2",
"A. c gray100",
"S. c None",
/* pixels */
"S.w M s M B Z Z Z V n w S.S.S.S.",
"S.M %.k.C.Z.C.w.4.3.+.< S.S.S.S.",
"6 *.B.B.B.B.7.3.4.5.*., S.S.S.S.",
"w s.M.M.s.2.,.,.2.f.o.; S.S.S.S.",
"y s.s.w.B y y y w 4 , @ S.S.S.S.",
"6 2.J 1 6 1 3 3 1 , , , : : ; n ",
"$ X.w -.c.c.c.c.v.6.>.t.:.:...y ",
"+ A y ;.k.k.k.k.s.w.#.p.p.p.@.u ",
"S.$ w W { ! } =.w.8.| e.y.u. .y ",
"a N e ! %.&.&.5.w.3.P ) ( / L y ",
"A z.e Q 7.0.w.8.3.X.v R E ^ K y ",
"H Z.y Q k.M.x.j.2.F I U Y T b y ",
"A Z.y * f f f f g j k l l c h u ",
"; 1 #       X   o O     X X X # ",
"S.S.` } } } } ` a a ` } } } } ' ",
"S.S.S.S.1 z i 0 D D w & - 6 S.S."
};
