/* XPM */
static char *configure-bttv[] = {
/* columns rows colors chars-per-pixel */
"32 32 117 2",
"   c #000000",
".  c #080806",
"X  c #0C0C0C",
"o  c #040F11",
"O  c #131313",
"+  c #161618",
"@  c #1A1A1B",
"#  c #0B1F24",
"$  c #112327",
"%  c #142428",
"&  c #1F2021",
"*  c #19262A",
"=  c #1E292C",
"-  c #222222",
";  c #26282B",
":  c #2A2A2A",
">  c #232F32",
",  c #2F2F31",
"<  c #2F3134",
"1  c #323232",
"2  c #36383B",
"3  c #3B3B3B",
"4  c #063B46",
"5  c #063F4C",
"6  c #083843",
"7  c #0A3C48",
"8  c #1B3B42",
"9  c #293D42",
"0  c #333D40",
"q  c #0A414E",
"w  c #134451",
"e  c #1B4953",
"r  c #22434B",
"t  c #2D454C",
"y  c #2B626E",
"u  c #444444",
"i  c #424A4B",
"p  c #4A4A4A",
"a  c #4A4D52",
"s  c #435457",
"d  c #545454",
"f  c #5A5A5A",
"g  c #5E6263",
"h  c #5A676A",
"j  c #5C686C",
"k  c #626363",
"l  c #63676B",
"z  c #666A6B",
"x  c #696A6A",
"c  c #6B7375",
"v  c #747575",
"b  c #767B7C",
"n  c #7A7A7A",
"m  c #1B7D93",
"M  c #7C7E80",
"N  c #248399",
"B  c #2A859A",
"V  c #2D889C",
"C  c #33899D",
"Z  c #3B8C9F",
"A  c #3B8EA0",
"S  c #3F90A3",
"D  c #4391A4",
"F  c #4A93A4",
"G  c #4B96A8",
"H  c #4F98A9",
"J  c #5196A6",
"K  c #5399A9",
"L  c #5A9EAD",
"P  c #72888D",
"I  c #7F8182",
"U  c #738B90",
"Y  c #74969E",
"T  c #7C9DA6",
"R  c #66A1AF",
"E  c #63A1B0",
"W  c #6AA4B1",
"Q  c #71A6B2",
"!  c #74ABB7",
"~  c #828383",
"^  c #858788",
"/  c #84898B",
"(  c #8C8C8C",
")  c #8D8F92",
"_  c #8D9294",
"`  c #949596",
"'  c #939A9B",
"]  c #9A9A9A",
"[  c #82B1BC",
"{  c #8EB0B8",
"}  c #9BA2A4",
"|  c #9FA6A8",
" . c #A4A4A5",
".. c #A0A7A9",
"X. c #ACACAC",
"o. c #B6B6B6",
"O. c #B3BABC",
"+. c #BCBCBC",
"@. c #89B7C1",
"#. c #8DBAC5",
"$. c #91BCC5",
"%. c #9BC2CB",
"&. c #A3C5CD",
"*. c #ACCAD1",
"=. c #B4C2C6",
"-. c #B3CDD4",
";. c #B6D1D7",
":. c #BAD1D7",
">. c #BBD2D8",
",. c #C3C3C3",
"<. c #CCCCCC",
"1. c #C1D6DB",
"2. c #C4D8DD",
"3. c #D2D2D2",
"4. c #D8D8D8",
"5. c gray100",
"6. c None",
/* pixels */
"6.6.6.6.6.6.: 3 u p p p d p p d p p d p p u 6.6.6.6.6.6.6.6.6.6.",
"6.6.6.; 3 p p p p p d f f f g f f f f d d u : 6.6.6.6.6.6.6.6.6.",
"6.6.: u p n o.<.<.<.3.3.4.3.,.o.o.o.o.o.o.d ,   6.6.6.6.6.6.6.6.",
"6.  3 f ,.<.<.<.3.3.3.3.3.,.o.o.o.o.o.o.o.k :   6.6.6.6.6.6.6.6.",
"6.1 u +.<.<.<.<.3.3.<.3.,.o.o.o.+.o.o.o.o.x ,   6.6.6.6.6.6.6.6.",
"  1 ( ,.<.<.<.3.<.<.<.,.o.+.o.o.o.o.o.+.,.x :   6.6.6.6.6.6.6.6.",
"; 3 X.<.<.<.<.<.<.<.,.o.o.o.o.o.o.+.<.3.3.x :   6.6.6.6.6.6.6.6.",
": 3 o.,.<.,.,.<.+.X.X. . . . . . .X.X.X. .d -   6.6.6.6.6.6.6.6.",
": u +.,.,.,.,.o.d 1 1 , : , , : , : : : : - O   6.6.6.6.6.6.6.6.",
"- u +.,.,.,.,.X.p 3 3 3 3 3 3 3 : @ O O O X   6.6.6.6.6.6.6.6.6.",
"& u o.,.,.+.,.+.^ f f d d f f f d d p p ;   6.6.6.6.6.6.6.6.6.6.",
"& 3 X.+.u @ - ; : : : : : : : : : : ; : : : : : : : ; - ; - @ p ",
"O , ] o.u @ ^ O.O.O.O.O.O.O.+.O.o.+.X.} | | | | } } } } } v @ u ",
"  - f o.p @ ' <.<.<.<.<.<.<.<.<.<.<.<.] =.2.2.1.1.1.1.1.1.b & p ",
"  + 1 ` p @ _ <.<.<.<.<.<.,.<.,.<.,.,.o.` :.>.>.>.>.>.>.:.v & p ",
"6.  @ 3 u @ / <.<.<.<.<.<.<.<.,.,.,.,.+.^ -.-.;.;.;.;.;.:.z @ p ",
"6.6.  @ u @ c ^ ( ( ( ( ( (  .,.,.,.,.+.M %.&.*.*.*.*.;.-.g - p ",
"6.6.6.  p @ j Y U P P P P P ~ +.,.,.+.+.n { %.%.%.%.&.&.&.i - u ",
"6.: , , u @ h I ~ ~ ~ M M M ( ,.,.,.+.+.v T #.#.%.{ #.[ [ = & p ",
", u p d u @ s +.+.,.,.+.,.+.,.,.,.+.+.X.k Q ! ! R R W Q Q = & u ",
", f +.,.p @ 2 o.+.+.+.,.+.,.+.+.o.o.X.^ 3 H H K L L R W W * - p ",
": n <.3.u @ r o.+.+.,.+.+.+.+.o.o.X.X.g t D F G H H L L R % & p ",
": n 3.3.p @ 2 +.+.+.+.+.+.+.+.o.o.X.( 1 y C Z A D F F J J % & u ",
": n 3.4.i + 9 +.+.+.+.,.+.+.o.o. .M 2 r B V C C A S D F J $ - p ",
": v 3.4.p @ # , 1 1 1 1 1 1 1 1 : > > m m N B B V C Z S D $ & p ",
": f <.3.p @ o 7 7 7 7 7 7 7 7 7 4 5 q q q q w w w e e e e o & u ",
"@ - 3 u 3 +                                             .   @ 3 ",
"  @ @ @ - : ; ; : ; ; ; : : : : ; 2 3 ; ; ; ; ; : : ; ; ; ; : - ",
"6.    6.~ / / / / / / / / / / / n g g n / / / / / / / / ( / / I ",
"6.6.6.6.6.6.6.6.6.6.6.6.6.6.5.] f     f ] 5.6.6.6.6.6.6.6.6.6.6.",
"6.6.6.6.6.6.6.6.6., 2 ; + .   . : - ; : X     . X & 1 < 6.6.6.6.",
"6.6.6.6.6.          + a l l f x n _ _ M z p , @ + O           6."
};
